# xmcd
#
# Track frame offsets:
#	150
#	19502
#	39056
#	59199
#	81245
#	98187
#	117928
#	140179
#	160383
#	184465
#	200114
#	221060
#	244249
#	266702
#	285509
#	300865
#	317968
#
# Disc length: 4485 seconds
#
# Revision: 0
# Processed by: cddbd v1.5.2PL0 Copyright (c) Steve Scherf et al.
# Submitted via: EZCDAudioConverter 2.8.0.1
#
DISCID=04118311
DTITLE=张宇 - 宇众不同
DYEAR=2002
DGENRE=
TTITLE0=故事中的故事
TTITLE1=掩饰
TTITLE2=留你留得你辛苦
TTITLE3=蓝色地平线
TTITLE4=爱要让全世界人知道
TTITLE5=不会后悔
TTITLE6=走路有风
TTITLE7=情有独钟
TTITLE8=怕我的脆弱
TTITLE9=爱情条约
TTITLE10=用心良苦
TTITLE11=小小的太阳
TTITLE12=一个人天荒地老
TTITLE13=一言难尽
TTITLE14=单恋一枝花
TTITLE15=大女人
TTITLE16=奇迹
EXTD=
EXTT0=
EXTT1=
EXTT2=
EXTT3=
EXTT4=
EXTT5=
EXTT6=
EXTT7=
EXTT8=
EXTT9=
EXTT10=
EXTT11=
EXTT12=
EXTT13=
EXTT14=
EXTT15=
EXTT16=
PLAYORDER=
